{"title":"Project Almanac (2015) BDRip 720p Hindi Audio Org DD 5.1 VISION ","uid":12349197,"size":1125539209,"categoryP":"video","categoryS":"hd___movies","magnet":"?xt=urn:btih:e9984b146ecf4318b7efca4e32431454dc7335d8&amp;dn=Project+Almanac+%282015%29+BDRip+720p+Hindi+Audio+Org+DD+5.1+VISION+&amp;tr=udp%3A%2F%2Ftracker.openbittorrent.com%3A80&amp;tr=udp%3A%2F%2Fopen.demonii.com%3A1337&amp;tr=udp%3A%2F%2Ftracker.coppersurfer.tk%3A6969&amp;tr=udp%3A%2F%2Fexodus.desync.com%3A6969","seeders":115,"leechers":103,"uploader":"SaM","files":9,"time":1441395184,"description":"****************************************************************************************\nProject Almanac (2015) BDRip 720p Hindi Audio Org DD 5.1 x264 ~VISION\n****************************************************************************************\n------------------------------------------------\nGeneral Information\n------------------------------------------------\nGeneral\nComplete name : Project Almanac (2015) BDRip 720p Hindi Audio Org DD 5.1 x264 ~VISION.mkv\nFormat : Matroska\nFormat version : Version 4 / Version 2\nFile size : 1 011 MiB\nDuration : 2h 00mn\nOverall bit rate : 1 474 Kbps\nMovie name : Project Almanac (2015)\n\n\nVideo\nID : 1\nFormat : AVC\nFormat/Info : Advanced Video Codec\nFormat profile : &lt;a class=&quot;__cf_email__&quot; href=&quot;/cdn-cgi/l/email-protection&quot; data-cfemail=&quot;ce8cafbdaba2a7a0ab8e82fae0ff&quot;&gt;[email&amp;#160;protected]&lt;/a&gt;&lt;script data-cfhash='f9e31' type=&quot;text/javascript&quot;&gt;\n/* &lt;![CDATA[ */!function(){try{var t=&quot;currentScript&quot;in document?document.currentScript:function(){for(var t=document.getElementsByTagName(&quot;script&quot;),e=t.length;e--;)if(t[e].getAttribute(&quot;data-cfhash&quot;))return t[e]}();if(t&amp;&amp;t.previousSibling){var e,r,n,i,c=t.previousSibling,a=c.getAttribute(&quot;data-cfemail&quot;);if(a){for(e=&quot;&quot;,r=parseInt(a.substr(0,2),16),n=2;a.length-n;n+=2)i=parseInt(a.substr(n,2),16)^r,e+=String.fromCharCode(i);e=document.createTextNode(e),c.parentNode.replaceChild(e,c)}t.parentNode.removeChild(t);}}catch(u){}}()/* ]]&gt; */&lt;/script&gt;\nFormat settings, CABAC : No\nFormat settings, ReFrames : 1 frame\nCodec ID : V_MPEG4/ISO/AVC\nDuration : 2h 00mn\nBit rate : 1 000 Kbps\nWidth : 1 280 pixels\nHeight : 536 pixels\nDisplay aspect ratio : 2.40:1\nFrame rate mode : Constant\nFrame rate : 25.000 fps\nColor space : YUV\nChroma subsampling : 4:2:0\nBit depth : 8 bits\nScan type : Progressive\nBits/(Pixel*Frame) : 0.091\nStream size : 798 MiB (79%)\nDefault : Yes\nForced : No\n\nAudio #1\nID : 2\nFormat : AC-3\nFormat/Info : Audio Coding 3\nMode extension : CM (complete main)\nFormat settings, Endianness : Big\nCodec ID : A_AC3\nDuration : 2h 00mn\nBit rate mode : Constant\nBit rate : 448 Kbps\nChannel(s) : 6 channels\nChannel positions : Front: L C R, Side: L R, LFE\nSampling rate : 48.0 KHz\nCompression mode : Lossy\nStream size : 326 MiB (31%)\nTitle : Hindi Org Untouched Dvd DD 5.1 448Kbps\nLanguage : Hindi\nDefault : Yes\nForced : No \n &lt;a href=&quot;\nhttp://extraimago.com/image/RBL&quot; rel=&quot;nofollow&quot; target=&quot;_NEW&quot;&gt;\nhttp://extraimago.com/image/RBL&lt;/a&gt; &lt;a href=&quot;\nhttp://extraimago.com/image/RBQ&quot; rel=&quot;nofollow&quot; target=&quot;_NEW&quot;&gt;\nhttp://extraimago.com/image/RBQ&lt;/a&gt; &lt;a href=&quot;\nhttp://extraimago.com/image/RBR&quot; rel=&quot;nofollow&quot; target=&quot;_NEW&quot;&gt;\nhttp://extraimago.com/image/RBR&lt;/a&gt; &lt;a href=&quot;\nhttp://extraimago.com/image/RBm&quot; rel=&quot;nofollow&quot; target=&quot;_NEW&quot;&gt;\nhttp://extraimago.com/image/RBm&lt;/a&gt; &lt;a href=&quot;\nhttp://extraimago.com/image/RBi&quot; rel=&quot;nofollow&quot; target=&quot;_NEW&quot;&gt;\nhttp://extraimago.com/image/RBi&lt;/a&gt; &lt;a href=&quot;\nhttp://extraimago.com/image/RBl&quot; rel=&quot;nofollow&quot; target=&quot;_NEW&quot;&gt;\nhttp://extraimago.com/image/RBl&lt;/a&gt;","torrent":{"xt":"urn:btih:e9984b146ecf4318b7efca4e32431454dc7335d8","amp;dn":"Project+Almanac+%282015%29+BDRip+720p+Hindi+Audio+Org+DD+5.1+VISION+","amp;tr":["udp%3A%2F%2Ftracker.openbittorrent.com%3A80","udp%3A%2F%2Fopen.demonii.com%3A1337","udp%3A%2F%2Ftracker.coppersurfer.tk%3A6969","udp%3A%2F%2Fexodus.desync.com%3A6969"],"infoHash":"e9984b146ecf4318b7efca4e32431454dc7335d8","infoHashBuffer":{"type":"Buffer","data":[233,152,75,20,110,207,67,24,183,239,202,78,50,67,20,84,220,115,53,216]},"announce":[],"urlList":[]}}